<svg xmlns="http://www.w3.org/2000/svg" viewBox="0 0 1440 40" preserveAspectRatio="none" fill="white">
  <!-- Hand-drawn adaptation of the separator in Sajid's Cyberpunk concept UI.
       Reference and attribution: docs/themes.md. The empty subpaths cut tiny
       fractures into the edge; detached shapes form the registration marks. -->
  <path fill-rule="evenodd" d="
    M0 0H1440V20H1411L1400 7L1395 14H1371L1360 27H1336L1330 20
    H1271L1266 26L1261 19H1176L1167 6L1146 30L1140 22H1136L1132 20
    H938L928 12H921L909 30L903 20H801L797 24L793 20
    H706L696 7L691 14H666L656 27H632L627 19H575L569 26L564 19
    H450L441 5L420 30L414 22H411L407 26L403 21
    H139L132 13H124L112 30L106 21H0Z
    M561 12H568L565 17Z
    M673 19H675V24H673Z
    M680 18H681V22H680Z
    M687 18H689V20H687Z
    M1260 12H1267L1263 17Z
    M1375 19H1377V24H1375Z
    M1382 18H1383V22H1382Z
  "/>
  <path d="M756 26L760 32H752Z M1140 26L1143 30H1138Z M407 28L409 31H405Z"/>
  <path d="M34 25H38V31H34Z M49 25H50V31H49Z M53 26H54V31H53Z
           M61 25H63V31H61Z M841 25H845V31H841Z M856 25H857V31H856Z
           M860 26H861V31H860Z M868 25H870V31H868Z"/>
</svg>
